<?xml version="1.0" standalone="no"?>
<!DOCTYPE svg PUBLIC "-//W3C//DTD SVG 20010904//EN"
 "http://www.w3.org/TR/2001/REC-SVG-20010904/DTD/svg10.dtd">
<svg version="1.0" xmlns="http://www.w3.org/2000/svg"
 width="700.000000pt" height="700.000000pt" viewBox="0 0 700.000000 700.000000"
 preserveAspectRatio="xMidYMid meet">
<metadata>
Created by potrace 1.14, written by Peter Selinger 2001-2017
</metadata>
<g transform="translate(0.000000,700.000000) scale(0.100000,-0.100000)"
fill="#000000" stroke="none">
<path d="M3235 6180 c-139 -16 -172 -22 -290 -46 -237 -50 -464 -131 -674
-240 -58 -30 -115 -60 -126 -67 -164 -102 -284 -187 -385 -272 -77 -64 -309
-305 -367 -380 -305 -391 -489 -819 -559 -1295 -20 -140 -27 -519 -12 -667 10
-93 40 -263 63 -353 3 -14 8 -36 11 -49 25 -122 126 -379 218 -556 322 -617
857 -1076 1526 -1306 81 -28 240 -72 305 -83 62 -12 141 -26 163 -31 140 -27
676 -27 782 0 8 2 35 7 60 10 25 3 73 13 106 20 34 8 73 16 85 19 42 8 262 77
329 103 108 42 359 168 455 228 266 167 517 395 703 638 71 92 162 223 162
232 0 2 11 20 25 40 40 59 140 262 184 373 39 98 105 304 115 357 3 14 7 33
10 43 5 18 8 31 25 122 29 160 36 248 36 480 0 118 -4 247 -8 285 -5 39 -10
81 -12 95 -2 22 -13 89 -20 131 -19 103 -87 342 -123 434 -11 28 -26 66 -33
85 -51 133 -214 423 -315 560 -353 477 -832 815 -1392 986 -122 37 -308 78
-402 89 -30 4 -66 9 -80 12 -44 9 -493 11 -565 3z m275 -1423 c19 -3 71 -8
115 -11 184 -14 422 -50 645 -97 237 -51 516 -137 715 -221 112 -47 347 -167
395 -202 60 -43 100 -118 104 -192 6 -111 -79 -229 -183 -254 -92 -22 -125
-13 -321 92 -154 81 -345 156 -560 217 -169 48 -240 66 -310 77 -19 3 -42 7
-50 9 -47 14 -279 48 -405 60 -33 4 -73 8 -90 10 -198 23 -765 24 -905 1 -14
-3 -50 -7 -80 -10 -58 -6 -100 -12 -165 -21 -148 -23 -278 -51 -402 -86 -97
-27 -156 -27 -214 0 -92 43 -144 129 -143 231 1 92 35 157 109 207 34 23 148
63 180 63 12 0 25 3 29 8 4 4 11 7 14 7 8 1 83 17 97 21 17 5 287 52 330 58
141 18 193 23 320 31 55 4 101 8 103 10 5 5 633 -3 672 -8z m-115 -941 c33 -4
79 -9 103 -11 23 -3 63 -7 90 -10 203 -23 477 -82 702 -152 281 -87 673 -268
755 -349 50 -49 71 -111 60 -180 -9 -63 -73 -132 -145 -158 -75 -27 -125 -17
-239 49 -307 174 -705 312 -1046 361 -16 3 -52 9 -80 14 -122 23 -311 35 -550
35 -262 0 -447 -15 -615 -50 -14 -3 -38 -8 -55 -11 -46 -8 -267 -64 -277 -70
-18 -11 -104 -5 -139 10 -80 33 -137 129 -125 211 10 62 58 129 112 155 89 44
395 112 605 136 30 3 65 7 79 10 14 2 70 7 125 10 55 3 101 7 103 9 5 5 478
-3 537 -9z m45 -870 c25 -3 68 -8 95 -11 114 -15 283 -46 392 -74 79 -20 220
-65 258 -81 11 -5 43 -16 70 -26 64 -22 290 -130 375 -179 122 -70 148 -110
141 -212 -1 -29 -67 -102 -108 -119 -51 -22 -108 -17 -161 12 -334 189 -653
299 -982 339 -25 3 -61 8 -80 10 -171 22 -610 23 -726 1 -11 -2 -50 -7 -89
-10 -38 -4 -77 -9 -85 -11 -8 -2 -37 -6 -64 -10 -27 -3 -52 -8 -55 -9 -3 -2
-28 -7 -55 -10 -27 -4 -52 -9 -56 -11 -4 -2 -29 -7 -56 -11 -27 -3 -59 -10
-73 -15 -90 -35 -200 8 -235 92 -24 58 12 166 69 203 22 14 136 45 220 59 17
3 69 13 116 21 47 9 108 18 135 21 27 3 56 8 64 10 8 2 47 7 85 10 39 3 102 9
140 14 77 9 593 7 665 -3z"/>
</g>
</svg>
